<svg viewBox="0 0 17 17" fill="currentColor" xmlns="http://www.w3.org/2000/svg">
<path d="M15.0879 0.746993L15.0825 0.749087L0.82931 6.57148C0.709105 6.62013 0.603029 6.69814 0.520573 6.79854C0.438117 6.89893 0.381851 7.01858 0.356809 7.14679C0.329161 7.28103 0.335154 7.4204 0.374247 7.55237C0.41334 7.68434 0.484306 7.80476 0.580762 7.90279L3.25785 10.6176C3.38991 10.7515 3.56375 10.8351 3.74942 10.8543C3.93508 10.8734 4.12094 10.8267 4.27496 10.7223L10.7834 6.26371C10.8091 6.24629 10.8401 6.23851 10.8711 6.24169C10.902 6.24488 10.931 6.25884 10.953 6.28116C10.9751 6.30349 10.9887 6.33278 10.9917 6.36398C10.9946 6.39518 10.9867 6.42633 10.9692 6.45207L6.49645 12.9747C6.39169 13.1289 6.34398 13.3157 6.36152 13.5027C6.37907 13.6898 6.46078 13.8654 6.59258 13.9994L9.27014 16.7147C9.36229 16.8083 9.47584 16.8776 9.60062 16.9163C9.7254 16.9551 9.8575 16.9622 9.98506 16.9369C10.1389 16.9069 10.2802 16.8319 10.3912 16.7211C10.4682 16.644 10.529 16.552 10.57 16.4505L16.4751 2.16269L16.4774 2.15606C16.5545 1.96134 16.5731 1.74758 16.5307 1.54123C16.4884 1.33488 16.387 1.14498 16.2392 0.995041C16.0913 0.845098 15.9034 0.741686 15.6988 0.697599C15.4942 0.653512 15.2818 0.670685 15.0879 0.746993Z" fill="#0B001A"/>
</svg>
